{"title":"Malgudi Days 2016 Malayalam DVDRip AC3 x264 Subs TmG-ExclussivE","uid":14785927,"size":1553983926,"categoryP":"video","categoryS":"movies","magnet":"?xt=urn:btih:38862c1df5c3aa67a1f71b2f26baaf76cde9c351&amp;dn=Malgudi+Days+2016+Malayalam+DVDRip+AC3+x264+Subs+TmG-ExclussivE&amp;tr=udp%3A%2F%2Ftracker.leechers-paradise.org%3A6969&amp;tr=udp%3A%2F%2Fzer0day.ch%3A1337&amp;tr=udp%3A%2F%2Fopen.demonii.com%3A1337&amp;tr=udp%3A%2F%2Ftracker.coppersurfer.tk%3A6969&amp;tr=udp%3A%2F%2Fexodus.desync.com%3A6969","seeders":5,"leechers":2,"uploader":"CDRiPD","files":2,"time":1465015728,"description":"Malgudi Days 2016 Malayalam DVDRip AC3 x264 Subs TmG-ExclussivE\r\n\r\n\r\nFormat                                   : Matroska\r\nFormat version                           : Version 2\r\nFile size                                : 1.45 GiB\r\nDuration                                 : 2h 4mn\r\nOverall bit rate                         : 1 666 Kbps\r\n\r\nVideo\r\nID                                       : 2\r\nFormat                                   : AVC\r\nFormat profile                           :   \r\nFormat settings, CABAC                   : Yes\r\nFormat settings, ReFrames                : 4 frames\r\nMuxing mode                              : Header stripping\r\nCodec ID                                 : V_MPEG4/ISO/AVC\r\nDuration                                 : 2h 4mn\r\nBit rate                                 : 1 217 Kbps\r\nWidth                                    : 720 pixels\r\nHeight                                   : 304 pixels\r\nDisplay aspect ratio                     : 2.35:1\r\nFrame rate mode                          : Constant\r\nFrame rate                               : 23.976 fps\r\nColor space                              : YUV\r\nChroma subsampling                       : 4:2:0\r\nBit depth                                : 8 bits\r\nScan type                                : Progressive\r\nBits/(Pixel*Frame)                       : 0.232\r\nStream size                              : 1.03 GiB (71%)\r\nWriting library                          : x264 core 146 r2538 121396c\r\n\r\nAudio\r\nID                                       : 3\r\nFormat                                   : AC-3\r\nDuration                                 : 2h 4mn\r\nBit rate mode                            : Constant\r\nBit rate                                 : 448 Kbps\r\nChannel(s)                               : 6 channels\r\nChannel positions                        : Front: L C R, Side: L R, LFE\r\nSampling rate                            : 48.0 KHz\r\nBit depth                                : 16 bits\r\nCompression mode                         : Lossy\r\nStream size                              : 399 MiB (27%)\r\nLanguage                                 : Malayalam\r\n\r\nText\r\nID                                       : 1\r\nFormat                                   : UTF-8\r\nCodec ID                                 : S_TEXT/UTF8\r\nCodec ID/Info                            : UTF-8 Plain Text\r\nLanguage                                 : English\r\n\r\nScreen Shots:\r\n \nhttps://ititli.com/Xu7 \nhttps://ititli.com/XuC \nhttps://ititli.com/XuF \nhttps://ititli.com/XuJ \nhttps://ititli.com/Xu5 \nhttps://ititli.com/XuB \nhttps://ititli.com/XuN \nhttps://ititli.com/XuP \nhttps://ititli.com/Xuf \nhttps://ititli.com/Xuu","torrent":{"xt":"urn:btih:38862c1df5c3aa67a1f71b2f26baaf76cde9c351","amp;dn":"Malgudi+Days+2016+Malayalam+DVDRip+AC3+x264+Subs+TmG-ExclussivE","amp;tr":["udp%3A%2F%2Ftracker.leechers-paradise.org%3A6969","udp%3A%2F%2Fzer0day.ch%3A1337","udp%3A%2F%2Fopen.demonii.com%3A1337","udp%3A%2F%2Ftracker.coppersurfer.tk%3A6969","udp%3A%2F%2Fexodus.desync.com%3A6969"],"infoHash":"38862c1df5c3aa67a1f71b2f26baaf76cde9c351","infoHashBuffer":{"type":"Buffer","data":[56,134,44,29,245,195,170,103,161,247,27,47,38,186,175,118,205,233,195,81]},"announce":[],"urlList":[]}}